<?xml version="1.0" standalone="no"?><!DOCTYPE svg PUBLIC "-//W3C//DTD SVG 1.1//EN" "http://www.w3.org/Graphics/SVG/1.1/DTD/svg11.dtd"><svg t="1715768636114" class="icon" viewBox="0 0 1024 1024" version="1.1" xmlns="http://www.w3.org/2000/svg" p-id="1572" xmlns:xlink="http://www.w3.org/1999/xlink" width="200" height="200"><path d="M855.04 911.36C678.4 1063.68 409.6 1041.92 258.56 865.28L122.88 706.56C-28.16 529.92-7.68 261.12 170.24 110.08 346.88-42.24 615.68-20.48 766.72 156.16l135.68 158.72c151.04 176.64 129.28 445.44-47.36 596.48z" fill="#59CFE2" opacity=".9" p-id="1573"></path><path d="M913.92 156.16C1064.96 334.08 1044.48 601.6 866.56 753.92L707.84 889.6C531.2 1040.64 262.4 1018.88 111.36 842.24-39.68 664.32-19.2 395.52 158.72 244.48L316.16 110.08C494.08-42.24 762.88-20.48 913.92 156.16z" fill="#1ABCE0" opacity=".5" p-id="1574"></path><path d="M647.68 832V686.08s-1.28-49.92 32-93.44c12.8-16.64 24.32-35.84 30.72-55.04 19.2-60.16 30.72-179.2-98.56-248.32 0 0-145.92-75.52-258.56 26.88-20.48 19.2-35.84 43.52-43.52 70.4-5.12 20.48-8.96 47.36-5.12 79.36 0 3.84 1.28 7.68 1.28 11.52 1.28 8.96 3.84 33.28-11.52 56.32l-29.44 43.52s-8.96 19.2 12.8 23.04c0 0 6.4 0 11.52 2.56 3.84 1.28 5.12 5.12 2.56 8.96-3.84 3.84-6.4 10.24 2.56 15.36 2.56 1.28 3.84 5.12 2.56 7.68-2.56 5.12-5.12 12.8 8.96 16.64 2.56 1.28 3.84 3.84 3.84 6.4-2.56 15.36-8.96 61.44 33.28 61.44l34.56-3.84c24.32-2.56 47.36 14.08 51.2 39.68 2.56 15.36 5.12 47.36 5.12 78.08l48.64 6.4c35.84 5.12 71.68 5.12 107.52 0l57.6-7.68z" fill="#FEDBC6" p-id="1575"></path><path d="M264.96 499.2c307.2-17.92 500.48-142.08 500.48-142.08l51.2-62.72-43.52-21.76c-328.96-14.08-541.44 151.04-541.44 151.04s-72.96 81.92 33.28 75.52" fill="#F49F97" p-id="1576"></path><path d="M652.8 833.28c-7.68 0-12.8-5.12-12.8-12.8V682.24c0-2.56 0-55.04 34.56-101.12 14.08-17.92 23.04-34.56 28.16-52.48 15.36-47.36 37.12-165.12-93.44-235.52-5.12-2.56-140.8-70.4-245.76 25.6-19.2 17.92-33.28 40.96-39.68 65.28-6.4 23.04-7.68 48.64-5.12 75.52 0 3.84 1.28 6.4 1.28 10.24 2.56 11.52 5.12 39.68-14.08 67.84l-29.44 42.24v2.56s1.28 1.28 5.12 1.28c0 0 7.68 1.28 15.36 3.84 5.12 2.56 8.96 6.4 10.24 12.8 1.28 5.12 0 8.96-2.56 12.8 3.84 2.56 5.12 6.4 6.4 10.24 1.28 3.84 1.28 8.96-1.28 12.8 8.96 2.56 14.08 11.52 12.8 20.48-2.56 14.08-2.56 32 3.84 39.68 1.28 1.28 5.12 6.4 17.92 6.4l34.56-3.84c32-2.56 60.16 19.2 65.28 49.92 3.84 19.2 5.12 42.24 5.12 70.4 0 7.68-5.12 12.8-12.8 12.8s-12.8-5.12-12.8-12.8c0-26.88-1.28-48.64-5.12-66.56-2.56-17.92-20.48-30.72-38.4-28.16l-35.84 3.84c-20.48 0-32-7.68-38.4-15.36-12.8-15.36-12.8-39.68-10.24-55.04-6.4-2.56-10.24-6.4-12.8-12.8-1.28-3.84-2.56-8.96 0-15.36-5.12-3.84-6.4-8.96-7.68-12.8v-8.96c-15.36-2.56-20.48-10.24-24.32-15.36-6.4-11.52 0-24.32 0-25.6l1.28-1.28 30.72-43.52c12.8-19.2 11.52-39.68 10.24-47.36-1.28-3.84-1.28-7.68-1.28-11.52-3.84-29.44-1.28-58.88 5.12-85.76 7.68-29.44 24.32-55.04 47.36-76.8 117.76-108.8 273.92-29.44 275.2-29.44 152.32 80.64 119.04 224 106.24 264.96-6.4 20.48-16.64 39.68-32 60.16-28.16 39.68-28.16 85.76-28.16 85.76v138.24c0 6.4-5.12 12.8-12.8 12.8zM308.48 634.88z m-17.92 0z" fill="#333333" p-id="1577"></path><path d="M647.68 428.8c-5.12 0-10.24-2.56-11.52-7.68-2.56-6.4 0-14.08 7.68-16.64 117.76-47.36 166.4-90.88 161.28-104.96-3.84-11.52-52.48-26.88-183.04-2.56-6.4 1.28-14.08-3.84-15.36-10.24-1.28-6.4 3.84-14.08 10.24-15.36 72.96-14.08 198.4-29.44 212.48 20.48 15.36 52.48-119.04 112.64-176.64 136.96h-5.12zM371.2 505.6c-6.4 0-11.52-5.12-12.8-11.52-1.28-6.4 3.84-14.08 10.24-14.08 48.64-7.68 104.96-20.48 160-35.84 11.52-3.84 21.76-6.4 32-10.24 6.4-2.56 14.08 1.28 16.64 7.68 2.56 6.4-1.28 14.08-7.68 16.64-10.24 3.84-21.76 6.4-33.28 10.24-56.32 16.64-113.92 29.44-163.84 37.12H371.2zM284.16 513.28h-19.2c-40.96-2.56-64-12.8-70.4-33.28-8.96-29.44 28.16-65.28 110.08-106.24 6.4-2.56 14.08 0 16.64 6.4s0 14.08-6.4 16.64c-85.76 42.24-99.84 69.12-97.28 76.8 1.28 3.84 12.8 12.8 47.36 14.08 11.52 1.28 25.6 1.28 40.96 0 7.68 0 12.8 5.12 14.08 11.52 0 7.68-5.12 12.8-11.52 14.08-8.96-1.28-16.64 0-24.32 0zM207.36 320c-5.12 0-10.24-3.84-12.8-8.96-2.56-6.4-2.56-12.8 0-19.2 14.08-47.36 131.84-34.56 200.96-21.76 6.4 1.28 11.52 7.68 10.24 15.36-1.28 6.4-7.68 11.52-15.36 10.24-122.88-21.76-168.96-6.4-171.52 3.84v5.12c2.56 6.4-1.28 14.08-8.96 16.64 0-1.28-1.28-1.28-2.56-1.28z" fill="#333333" p-id="1578"></path><path d="M437.76 451.84c-1.28 0-2.56 0-3.84-1.28-47.36-16.64-92.16-34.56-129.28-52.48-6.4-2.56-8.96-10.24-5.12-16.64 2.56-6.4 10.24-8.96 16.64-5.12 35.84 17.92 79.36 35.84 126.72 51.2 6.4 2.56 10.24 8.96 7.68 16.64-2.56 3.84-7.68 7.68-12.8 7.68zM739.84 513.28c-57.6 0-125.44-12.8-156.16-19.2-6.4-1.28-11.52-7.68-10.24-15.36 1.28-6.4 7.68-11.52 15.36-10.24 144.64 30.72 212.48 17.92 216.32 3.84 2.56-6.4-11.52-33.28-97.28-76.8-6.4-2.56-8.96-10.24-5.12-16.64 2.56-6.4 10.24-8.96 16.64-5.12 81.92 40.96 119.04 76.8 110.08 106.24-7.68 24.32-44.8 33.28-89.6 33.28z" fill="#333333" p-id="1579"></path><path d="M275.2 316.16l-1.28 15.36c0 1.28 0 2.56 1.28 2.56l12.8 10.24c2.56 1.28 1.28 5.12-1.28 5.12l-15.36 3.84c-1.28 0-1.28 1.28-2.56 2.56l-5.12 15.36c-1.28 2.56-3.84 2.56-6.4 0l-7.68-12.8c0-1.28-1.28-1.28-2.56-1.28l-16.64-1.28c-2.56 0-3.84-3.84-2.56-5.12l10.24-12.8c1.28-1.28 1.28-1.28 1.28-2.56l-3.84-15.36c-1.28-2.56 1.28-5.12 3.84-3.84l15.36 6.4h2.56l12.8-8.96c2.56-2.56 5.12-1.28 5.12 2.56z" fill="#FFFFFF" p-id="1580"></path><path d="M595.2 392.96l11.52 11.52c1.28 1.28 1.28 1.28 2.56 1.28l15.36-2.56c2.56 0 5.12 2.56 3.84 5.12l-7.68 14.08v2.56l7.68 14.08c1.28 2.56-1.28 5.12-3.84 5.12l-15.36-2.56c-1.28 0-2.56 0-2.56 1.28l-11.52 11.52c-1.28 2.56-5.12 1.28-5.12-1.28L588.8 435.2c0-1.28-1.28-2.56-1.28-2.56l-14.08-6.4c-2.56-1.28-2.56-5.12 0-6.4l14.08-7.68c1.28 0 1.28-1.28 1.28-2.56l2.56-15.36c-1.28-1.28 2.56-2.56 3.84-1.28z" fill="#FFFFFF" p-id="1581"></path><path d="M680.96 776.96c0-6.4 5.12-11.52 11.52-11.52h56.32c6.4 0 11.52 5.12 11.52 11.52s-5.12 11.52-11.52 11.52h-56.32c-5.12 0-11.52-5.12-11.52-11.52z" fill="#333333" p-id="1582"></path><path d="M680.96 815.36c0-6.4 5.12-11.52 11.52-11.52h94.72c6.4 0 11.52 5.12 11.52 11.52s-5.12 11.52-11.52 11.52h-94.72c-5.12 0-11.52-5.12-11.52-11.52z" fill="#333333" p-id="1583"></path></svg>